{"title":"Men In Black 3 2012 TS RMVB-NoGRP","uid":7298756,"size":562868848,"categoryP":"video","categoryS":"movies","magnet":"?xt=urn:btih:6e5fcea6e2f48ab286e860169f72ead9915a4b78&amp;dn=Men+In+Black+3+2012+TS+RMVB-NoGRP&amp;tr=udp%3A%2F%2Ftracker.openbittorrent.com%3A80&amp;tr=udp%3A%2F%2Fopen.demonii.com%3A1337&amp;tr=udp%3A%2F%2Ftracker.coppersurfer.tk%3A6969&amp;tr=udp%3A%2F%2Fexodus.desync.com%3A6969","seeders":1,"leechers":0,"uploader":"charlesfire22","files":-1,"time":1337972441,"description":"Men In Black 3 2012 TS RMVB-NoGRP\n\n &lt;a href=&quot;\nhttp://www.imdb.com/title/tt1409024/&quot; rel=&quot;nofollow&quot; target=&quot;_NEW&quot;&gt;\nhttp://www.imdb.com/title/tt1409024/&lt;/a&gt;\n\nFormat: RealMedia\nFile size: 537 MiB\nDuration: 1h 32mn\nOverall bit rate: 797 Kbps\n\nVideo\nID: 0\nFormat: RealVideo 4\nCodec ID: RV40\nCodec ID/Info: Based on AVC (H.264), Real Player 9\nDuration: 1h 32mn\nBit rate: 733 Kbps\nWidth: 704 pixels\nHeight: 480 pixels\nDisplay aspect ratio: 3:2\nFrame rate: 29.970 fps\nStandard: NTSC\nBits/(Pixel*Frame): 0.072\nStream size: 484 MiB (90%)\n\nAudio\nID: 1\nFormat: AAC\nFormat/Info: Advanced Audio Codec\nFormat profile: HE-AAC\nCodec ID: racp\nCodec ID/Info: Real Player 10\nDuration: 1h 32mn\nBit rate: 64.0 Kbps\nChannel(s): 2 channels\nSampling rate: 44.1 KHz\nBit depth: 16 bits\nCompression mode: Lossy\nStream size: 42.3 MiB (8%)","torrent":{"xt":"urn:btih:6e5fcea6e2f48ab286e860169f72ead9915a4b78","amp;dn":"Men+In+Black+3+2012+TS+RMVB-NoGRP","amp;tr":["udp%3A%2F%2Ftracker.openbittorrent.com%3A80","udp%3A%2F%2Fopen.demonii.com%3A1337","udp%3A%2F%2Ftracker.coppersurfer.tk%3A6969","udp%3A%2F%2Fexodus.desync.com%3A6969"],"infoHash":"6e5fcea6e2f48ab286e860169f72ead9915a4b78","infoHashBuffer":{"type":"Buffer","data":[110,95,206,166,226,244,138,178,134,232,96,22,159,114,234,217,145,90,75,120]},"announce":[],"urlList":[]}}